<svg xmlns="http://www.w3.org/2000/svg" viewBox="0 0 320 240" width="32" height="24">
  <defs>
    <linearGradient id="slimeGradient" x1="0" y1="0" x2="0" y2="1">
      <stop offset="0%" stop-color="#cde9f9" />
      <stop offset="100%" stop-color="#a4d2f4" />
    </linearGradient>

    <clipPath id="slimeBodyClip">
      <path d="M 10 140 C 10 80, 60 35, 160 35 C 260 35, 310 80, 310 140 C 310 195, 250 225, 160 225 C 70 225, 10 195, 10 140 Z" />
    </clipPath>
  </defs>

  <ellipse cx="160" cy="215" rx="140" ry="25" fill="rgba(0, 0, 0, 0.12)" />

  <path d="M 10 140 C 10 80, 60 35, 160 35 C 260 35, 310 80, 310 140 C 310 195, 250 225, 160 225 C 70 225, 10 195, 10 140 Z"
        fill="url(#slimeGradient)"
        stroke="#588bb3"
        stroke-width="2" />

  <g clip-path="url(#slimeBodyClip)">
    <polygon points="25,225 55,168 115,139.5 190,120.5 265,139.5 295,177.5 310,225" fill="#8abde8" />
  </g>

  <ellipse cx="99" cy="86" rx="35" ry="22.5" fill="rgba(255, 255, 255, 0.95)" transform="rotate(-25 99 86)" />

  <ellipse cx="243.5" cy="98.2" rx="12.5" ry="10" fill="rgba(255, 255, 255, 0.95)" transform="rotate(20 243.5 98.2)" />

  <g transform="translate(93.5, 141) rotate(18)">
    <rect x="-17.5" y="-1.5" width="35" height="3" rx="1.5" fill="#2c4c68" />
    <rect x="-13.5" y="-7.5" width="12" height="2" rx="1" fill="#2c4c68" transform="rotate(10 -7.5 -6.5)" />
  </g>

  <g transform="translate(226.5, 141) rotate(-18)">
    <rect x="-17.5" y="-1.5" width="35" height="3" rx="1.5" fill="#2c4c68" />
    <rect x="1.5" y="-7.5" width="12" height="2" rx="1" fill="#2c4c68" transform="rotate(-10 7.5 -6.5)" />
  </g>

  <ellipse cx="61" cy="162.7" rx="15" ry="8" fill="#ffaecb" opacity="0.9" transform="rotate(-5 61 162.7)" />

  <ellipse cx="259" cy="162.7" rx="15" ry="8" fill="#ffaecb" opacity="0.9" transform="rotate(5 259 162.7)" />
</svg>